<?xml version="1.0" encoding="UTF-8" standalone="no"?>
<!-- Created with Inkscape (http://www.inkscape.org/) -->

<svg
   width="100%"
   height="100%"
   viewBox="0 0 132.55624 124.14577"
   version="1.1"
   id="svg1"
   xml:space="preserve"
   xmlns="http://www.w3.org/2000/svg"
   xmlnsSvg="http://www.w3.org/2000/svg"><g
     transform="translate(-44.259473,-62.714724)"><path
       style="fill:#ffffff;fill-opacity:1"
       d="M 56.430306,186.57858 C 50.78734,185.2796 46.53235,181.21972 44.745829,175.4299 c -0.464673,-1.50593 -0.486356,-3.76431 -0.486356,-50.6564 0,-46.902951 0.02159,-49.150631 0.486752,-50.667711 1.587791,-5.17844 5.235328,-8.98541 10.317073,-10.76803 1.275854,-0.44756 2.266151,-0.57566 4.542007,-0.58752 5.285841,-0.0275 2.112767,-1.90176 43.674225,25.79657 39.9031,26.593131 38.37301,25.481341 40.20705,29.215231 1.19394,2.43071 1.71143,4.55078 1.71143,7.01146 0,2.46067 -0.51749,4.58074 -1.71143,7.01145 -1.83408,3.73396 -0.30373,2.62201 -40.20705,29.21456 -31.174678,20.77557 -37.077961,24.61359 -38.647142,25.12646 -2.329764,0.76145 -5.984347,0.96312 -8.202082,0.45261 z m 104.060014,-1.72636 c -4.13377,-1.32173 -7.15731,-4.34906 -8.41705,-8.42762 -0.5161,-1.67093 -0.52526,-2.57184 -0.52526,-51.6511 0,-48.899271 0.0109,-49.985901 0.51968,-51.632021 0.92636,-2.99743 2.56866,-5.19175 5.14978,-6.88073 7.13367,-4.66799 16.85411,-1.05036 19.10378,7.1098 0.47483,1.72235 0.49447,3.77943 0.49447,51.799821 v 50.00625 l -0.59647,1.56614 c -1.59888,4.19814 -4.78802,7.15938 -8.88525,8.25028 -1.90118,0.5062 -5.02087,0.442 -6.84368,-0.14082 z"
       id="path1" /></g></svg>
