<?xml version="1.0" encoding="UTF-8" standalone="no"?>
<!-- Created with Inkscape (http://www.inkscape.org/) -->

<svg
   width="100%"
   height="100%"
   viewBox="0 0 95.882042 107.18682"
   version="1.1"
   id="svg1"
   xmlSpace="preserve"
   xmlns="http://www.w3.org/2000/svg"
   xmlnsSvg="http://www.w3.org/2000/svg"><g
     transform="translate(-55.337953,-36.863948)"><path
       style="fill:#ffffff;fill-opacity:1"
       d="m 67.554348,143.90922 c -5.704591,-0.79404 -10.308397,-4.91099 -11.770962,-10.52615 -0.593908,-2.28017 -0.593908,-83.601883 0,-85.882053 1.237535,-4.75122 4.87184,-8.58945 9.516899,-10.05092 1.75389,-0.55182 2.335975,-0.58608 9.932861,-0.58455 8.022756,0.002 8.080744,0.006 9.948873,0.68747 4.41932,1.61304 7.478382,4.75016 9.003042,9.23278 0.47543,1.39779 0.49496,3.12555 0.49496,43.78854 v 42.333323 l -0.6722,1.72378 c -1.37844,3.53483 -3.688661,6.19231 -6.713387,7.72251 -3.015862,1.52571 -3.420956,1.58668 -11.135246,1.67597 -3.929063,0.0455 -7.801241,-0.009 -8.60484,-0.1207 z m 56.362132,-0.0137 c -5.32588,-0.79456 -9.66962,-4.39355 -11.42023,-9.46219 l -0.61832,-1.79023 V 90.442067 48.241027 l 0.61832,-1.79023 c 1.17779,-3.41011 3.80999,-6.5071 6.75232,-7.94465 3.26986,-1.59757 3.60168,-1.6422 12.20853,-1.6422 7.4578,0 8.05009,0.0354 9.80057,0.58617 4.64506,1.46147 8.27936,5.2997 9.5169,10.05092 0.59391,2.28017 0.59391,83.601883 0,85.882053 -1.221,4.68774 -4.83112,8.54476 -9.37651,10.0178 -1.56916,0.50852 -2.43612,0.57075 -8.88263,0.63762 -3.92906,0.0408 -7.79859,-0.0236 -8.59895,-0.14299 z"
       id="path2" /></g></svg>
