<?xml version="1.0" encoding="UTF-8" standalone="no"?>
<!-- Created with Inkscape (http://www.inkscape.org/) -->

<svg
   width="100%"
   height="100%"
   viewBox="0 0 41.645107 46.261642"
   version="1.1"
   id="svg1"
   xmlSpace="preserve"
   xmlns="http://www.w3.org/2000/svg"
   xmlnsSvg="http://www.w3.org/2000/svg"><g
     transform="translate(-125.03903,-51.839159)"><path
       style="fill:#ffffff;fill-opacity:1"
       d="m 128.34242,98.020841 c -1.52314,-0.29857 -2.69158,-1.62534 -3.13706,-3.56211 -0.15865,-0.68976 -0.16633,-1.58877 -0.16633,-19.47936 0,-17.89059 0.008,-18.7896 0.16633,-19.47936 0.53159,-2.31117 2.02586,-3.66085 4.05303,-3.66085 0.65926,0 1.74379,0.28345 2.56,0.66908 1.01579,0.47992 31.57431,17.99273 32.47951,18.61371 0.36394,0.24966 0.89709,0.71081 1.18478,1.02477 1.96519,2.14466 1.48451,4.85891 -1.18478,6.69007 -0.9052,0.62098 -31.46372,18.13379 -32.47951,18.61371 -1.23116,0.58168 -2.42165,0.77702 -3.47597,0.57034 z"
       id="path1" /></g></svg>
