<?xml version="1.0" encoding="UTF-8" standalone="no"?>
<!-- Created with Inkscape (http://www.inkscape.org/) -->

<svg
   width="100%"
   height="100%"
   viewBox="0 0 135.43567 135.35242"
   version="1.1"
   id="svg1"
   xmlSpace="preserve"
   xmlns="http://www.w3.org/2000/svg"
  ><g
   
     transform="translate(-37.26685,-61.849943)"><path
       style="fill:#ffffff;fill-opacity:1"
       d="M 100.0601,197.06783 C 85.605013,195.76557 72.64638,190.57453 62.024297,181.83124 54.942093,176.0017 48.872216,168.47856 44.743105,160.41253 33.97808,139.38355 34.885088,114.59224 47.162182,94.291736 c 5.17783,-8.56168 13.186056,-16.6985 21.700366,-22.04883 15.657543,-9.83908 34.674002,-12.8569 52.600252,-8.34739 10.31456,2.59472 19.80505,7.54566 27.97801,14.59541 0.82012,0.70741 1.58657,1.28621 1.70321,1.28621 0.11665,0 2.12454,-1.88731 4.46199,-4.19402 3.75106,-3.70174 4.42072,-4.2504 5.70512,-4.6743 4.22269,-1.39365 8.82175,0.55318 10.63682,4.50269 l 0.60797,1.32292 0.0733,17.93264 0.0733,17.932654 -17.93264,-0.0733 -17.93265,-0.0733 -1.39438,-0.63018 c -1.81479,-0.82019 -3.83495,-3.01293 -4.43208,-4.81072 -0.58947,-1.77473 -0.58796,-4.01473 0.004,-5.80736 0.41863,-1.267944 0.96721,-1.947134 4.33303,-5.364614 l 3.85372,-3.91286 -0.78522,-0.65679 c -3.88635,-3.25051 -7.32126,-5.48501 -11.55737,-7.51823 -16.22561,-7.78789 -35.057037,-6.45291 -50.082167,3.55037 -18.944004,12.61235 -27.210916,36.511844 -20.080736,58.053044 7.115697,21.49745 27.629914,35.77563 50.110943,34.87791 9.66997,-0.38614 18.47928,-3.24679 26.48606,-8.60081 7.08875,-4.74015 12.8458,-11.19869 16.79054,-18.83642 2.2471,-4.3508 4.20039,-5.83288 7.94655,-6.0295 1.91471,-0.1005 2.32681,-0.0333 3.77292,0.61573 1.8649,0.83692 3.50642,2.46269 4.35636,4.31457 0.43187,0.94099 0.56872,1.75494 0.57173,3.40053 0.004,2.13119 -0.0207,2.21231 -1.65107,5.44342 -3.16007,6.26275 -7.55909,12.1845 -12.93457,17.41192 -5.49917,5.34771 -10.40264,8.82423 -17.1604,12.1666 -7.78697,3.85142 -14.29404,5.74285 -23.15104,6.72939 -3.2243,0.35914 -9.01984,0.46677 -11.77395,0.21865 z"
       id="path1" /></g></svg>
