<svg
    className="settings-icon"
    fill="white"
    width="100%"
    height="100%"
    viewBox="0 0 135.45909 135.47311"
    version="1.1"
    id="svg1"
    xmlSpace="preserve"
    xmlns="http://www.w3.org/2000/svg"
   
  >
    <g transform="translate(-37.493703,-80.766668)">
      <path
        d="m 97.825691,215.7533 c -2.914945,-0.76192 -5.538347,-2.60322 -7.127759,-5.00279 -1.374556,-2.0752 -1.918065,-3.89959 -2.099426,-7.04711 l -0.165523,-2.87263 -2.115414,-0.77031 c -1.163477,-0.42368 -3.033244,-1.20103 -4.155038,-1.72745 l -2.039624,-0.95714 -1.832183,1.69632 c -2.117128,1.96014 -3.81078,2.95446 -6.006574,3.52639 -2.869428,0.74739 -5.908611,0.42465 -8.786576,-0.93309 -1.7569,-0.82885 -10.600191,-9.67214 -11.429042,-11.42904 -1.357735,-2.87797 -1.680481,-5.91715 -0.93309,-8.78658 0.570782,-2.19137 1.565635,-3.88877 3.510293,-5.98918 l 1.680221,-1.8148 -1.210548,-2.6409 c -0.665801,-1.4525 -1.210548,-2.70055 -1.210548,-2.77344 0,-0.0729 -0.246679,-0.79184 -0.548177,-1.59767 l -0.548176,-1.46513 h -2.17436 c -6.282881,0 -11.168139,-3.5684 -12.648399,-9.23894 -0.65606,-2.51321 -0.65606,-12.34641 0,-14.85962 1.48026,-5.67054 6.365518,-9.23894 12.648399,-9.23894 h 2.17436 l 0.548176,-1.46513 c 0.301498,-0.80583 0.548177,-1.52478 0.548177,-1.59767 0,-0.0729 0.544747,-1.32094 1.210548,-2.77344 l 1.210548,-2.6409 -1.680221,-1.8148 c -1.944658,-2.10041 -2.939511,-3.79781 -3.510293,-5.98918 -0.747391,-2.86943 -0.424645,-5.90861 0.93309,-8.78658 0.828851,-1.7569 9.672142,-10.600191 11.429042,-11.429042 2.877965,-1.357735 5.917148,-1.680481 8.786576,-0.93309 2.198131,0.572541 3.889802,1.566585 6.01585,3.53498 l 1.841458,1.704908 1.499929,-0.751126 c 0.824962,-0.41312 2.690555,-1.19636 4.145763,-1.740535 l 2.645833,-0.989408 0.165523,-2.868138 c 0.298104,-5.165495 2.118971,-8.358731 6.143018,-10.77295 2.375599,-1.425236 4.325539,-1.752479 10.442476,-1.752479 6.01677,0 7.43563,0.197821 9.83961,1.371861 4.34031,2.119692 6.87916,6.455587 6.87916,11.748343 v 2.16111 l 1.65365,0.606094 c 0.9095,0.333351 2.82762,1.120781 4.26247,1.749844 l 2.60883,1.14375 1.79089,-1.658091 c 2.07744,-1.923389 3.78006,-2.918982 5.96529,-3.488163 2.99765,-0.780789 6.07805,-0.407132 9.06914,1.1001 1.67483,0.843959 8.88698,7.779932 10.35586,9.959282 1.18084,1.75201 1.9109,3.92345 2.0633,6.13697 0.25477,3.70041 -0.93311,6.79115 -3.80029,9.88797 l -1.72982,1.86837 1.21055,2.6409 c 0.6658,1.4525 1.21055,2.70055 1.21055,2.77344 0,0.0729 0.24668,0.79184 0.54817,1.59767 l 0.54818,1.46513 h 2.17436 c 4.95757,0 8.95981,2.11877 11.27459,5.96874 1.52953,2.54392 1.82621,4.23613 1.84361,10.51549 0.0177,6.37146 -0.29054,8.26568 -1.73723,10.67702 -2.418,4.03035 -5.60715,5.84575 -10.79158,6.14302 l -2.88677,0.16552 -0.60678,1.80137 c -0.33373,0.99076 -1.09801,2.86777 -1.6984,4.17115 l -1.09162,2.36977 1.731,1.86964 c 2.8684,3.09814 4.05628,6.18833 3.80148,9.88926 -0.15283,2.2197 -0.88466,4.39102 -2.06845,6.13697 -1.10808,1.6343 -7.65287,8.173 -9.33052,9.32186 -1.736,1.18881 -3.90692,1.92358 -6.13697,2.07711 -3.69084,0.25411 -6.79166,-0.93357 -9.86408,-3.77816 l -1.84446,-1.70768 -2.60883,1.14375 c -1.43485,0.62906 -3.35297,1.41649 -4.26247,1.74984 l -1.65365,0.6061 v 2.16111 c 0,6.26904 -3.57355,11.15623 -9.23893,12.63515 -2.50082,0.65282 -12.34704,0.65615 -14.838149,0.005 z m 15.081249,-38.79312 c 10.13451,-2.80309 17.97217,-10.68691 20.83115,-20.95384 0.67293,-2.41656 0.72723,-2.97701 0.72723,-7.50634 0,-4.52933 -0.0543,-5.08978 -0.72723,-7.50634 -3.1805,-11.42154 -12.65654,-19.95425 -24.0027,-21.61328 -3.39695,-0.4967 -9.07417,-0.18749 -12.146034,0.66153 -10.146719,2.80443 -18.028197,10.70984 -20.854136,20.91747 -0.678521,2.45089 -0.732488,3.00646 -0.732488,7.54062 0,4.53416 0.05397,5.08973 0.732488,7.54062 3.103278,11.20941 12.183632,19.47114 23.71498,21.57698 0.66657,0.12172 3.17648,0.18003 5.57757,0.12956 3.71583,-0.0781 4.73975,-0.19524 6.87917,-0.78698 z"
      />
    </g>
  </svg>